<svg width="25" height="25" viewBox="0 0 25 25" fill="none" xmlns="http://www.w3.org/2000/svg">
<path d="M6.82226 18.511C6.27001 17.9588 6.27001 17.0634 6.82226 16.5111L16.6075 6.72589C17.1598 6.17363 18.0552 6.17363 18.6074 6.72589C19.1597 7.27815 19.1597 8.17354 18.6074 8.7258L8.82217 18.511C8.26991 19.0633 7.37452 19.0633 6.82226 18.511ZM6.82227 8.7258C6.27001 8.17354 6.27001 7.27815 6.82227 6.72589C7.37452 6.17363 8.26991 6.17363 8.82217 6.72589L18.6074 16.5111C19.1597 17.0634 19.1597 17.9588 18.6074 18.511C18.0552 19.0633 17.1598 19.0633 16.6075 18.511L6.82227 8.7258Z" fill="#A5A5A5"/>
</svg>
