<svg width="16" height="17" viewBox="0 0 16 17" fill="none" xmlns="http://www.w3.org/2000/svg">
<path d="M0.571083 15.5711C-0.0916244 14.9083 -0.0916258 13.8339 0.571082 13.1712L12.3133 1.42892C12.976 0.766208 14.0505 0.766209 14.7132 1.42892C15.3759 2.09162 15.3759 3.16609 14.7132 3.82879L2.97096 15.5711C2.30825 16.2338 1.23379 16.2338 0.571083 15.5711ZM0.571084 3.8288C-0.0916247 3.16609 -0.0916251 2.09163 0.571083 1.42892C1.23379 0.766209 2.30825 0.766209 2.97096 1.42892L14.7132 13.1712C15.3759 13.8339 15.3759 14.9083 14.7132 15.5711C14.0505 16.2338 12.976 16.2338 12.3133 15.5711L0.571084 3.8288Z" fill="white"/>
</svg>
