<svg width="66" height="70" viewBox="0 0 66 70" fill="none" xmlns="http://www.w3.org/2000/svg">
<g filter="url(#filter0_di_2220_522)">
<path d="M27.8384 58.1079C27.1498 60.4434 24.6802 61.8061 22.4636 60.7984C19.1111 59.2743 16.0412 57.1692 13.4006 54.5696C9.70921 50.9353 6.97104 46.4467 5.42867 41.5015C3.8863 36.5562 3.58734 31.3069 4.55828 26.2185C5.52921 21.1301 7.74007 16.3597 10.995 12.3298C14.2499 8.29993 18.4485 5.13499 23.2188 3.11532C27.9891 1.09566 33.1838 0.28362 38.3429 0.751128C43.5019 1.21864 48.4661 2.95126 52.7956 5.79553C55.8925 7.83007 58.5964 10.3885 60.7916 13.3453C62.2431 15.3003 61.4304 18.0013 59.292 19.1658C57.1537 20.3303 54.5054 19.5042 52.9498 17.6311C51.52 15.9095 49.8381 14.4026 47.9542 13.165C44.8366 11.1169 41.262 9.86925 37.5471 9.53261C33.8322 9.19596 30.0915 9.7807 26.6565 11.235C23.2216 12.6893 20.1983 14.9684 17.8544 17.8702C15.5106 20.772 13.9186 24.2071 13.2195 27.8712C12.5203 31.5352 12.7356 35.3152 13.8462 38.8761C14.9569 42.4371 16.9286 45.6693 19.5867 48.2862C21.1929 49.8676 23.0199 51.1949 25.0038 52.2305C27.1623 53.3572 28.527 55.7724 27.8384 58.1079Z" fill="#5F5CF0"/>
</g>
	
<defs>
<filter id="filter0_di_2220_522" x="0" y="-3.37744" width="65.5239" height="72.512" filterUnits="userSpaceOnUse" color-interpolation-filters="sRGB">
<feFlood flood-opacity="0" result="BackgroundImageFix"/>
<feColorMatrix in="SourceAlpha" type="matrix" values="0 0 0 0 0 0 0 0 0 0 0 0 0 0 0 0 0 0 127 0" result="hardAlpha"/>
<feOffset dy="4"/>
<feGaussianBlur stdDeviation="2"/>
<feComposite in2="hardAlpha" operator="out"/>
<feColorMatrix type="matrix" values="0 0 0 0 0.172549 0 0 0 0 0.172549 0 0 0 0 0.172549 0 0 0 0.2 0"/>
<feBlend mode="normal" in2="BackgroundImageFix" result="effect1_dropShadow_2220_522"/>
<feBlend mode="normal" in="SourceGraphic" in2="effect1_dropShadow_2220_522" result="shape"/>
<feColorMatrix in="SourceAlpha" type="matrix" values="0 0 0 0 0 0 0 0 0 0 0 0 0 0 0 0 0 0 127 0" result="hardAlpha"/>
<feOffset dy="-5"/>
<feGaussianBlur stdDeviation="2"/>
<feComposite in2="hardAlpha" operator="arithmetic" k2="-1" k3="1"/>
<feColorMatrix type="matrix" values="0 0 0 0 1 0 0 0 0 1 0 0 0 0 1 0 0 0 0.2 0"/>
<feBlend mode="normal" in2="shape" result="effect2_innerShadow_2220_522"/>
</filter>
</defs>
</svg>
